<svg width="21" height="21" viewBox="0 0 21 21" fill="none" xmlns="http://www.w3.org/2000/svg">
<path d="M8.75 15.3125H13.125V16.4062H8.75V15.3125ZM6.5625 15.3125H7.65625V16.4062H6.5625V15.3125ZM8.75 12.5781H13.125V13.6719H8.75V12.5781ZM6.5625 12.5781H7.65625V13.6719H6.5625V12.5781ZM8.75 9.84375H13.125V10.9375H8.75V9.84375ZM6.5625 9.84375H7.65625V10.9375H6.5625V9.84375Z" fill="#EF873B"/>
<path d="M15.2131 5.03906H13.4233V4.45312C13.4233 4.14232 13.2976 3.84425 13.0738 3.62448C12.8501 3.40471 12.5466 3.28125 12.2301 3.28125H7.45739C7.14093 3.28125 6.83744 3.40471 6.61368 3.62448C6.38991 3.84425 6.2642 4.14232 6.2642 4.45312V5.03906H4.47443C4.15798 5.03906 3.85449 5.16253 3.63072 5.3823C3.40696 5.60207 3.28125 5.90014 3.28125 6.21094V18.5156C3.28125 18.8264 3.40696 19.1245 3.63072 19.3443C3.85449 19.564 4.15798 19.6875 4.47443 19.6875H15.2131C15.5295 19.6875 15.833 19.564 16.0568 19.3443C16.2805 19.1245 16.4063 18.8264 16.4063 18.5156V6.21094C16.4063 5.90014 16.2805 5.60207 16.0568 5.3823C15.833 5.16253 15.5295 5.03906 15.2131 5.03906ZM7.45739 4.45312H12.2301V6.79688H7.45739V4.45312ZM15.2131 18.5156H4.47443V6.21094H6.2642V7.96875H13.4233V6.21094H15.2131V18.5156Z" fill="#EF873B"/>
</svg>
