<svg width="29" height="19" viewBox="0 0 29 19" fill="none" xmlns="http://www.w3.org/2000/svg">
<path d="M1.58333 19C1.13472 19 0.758945 18.848 0.456 18.544C0.152 18.2411 0 17.8653 0 17.4167C0 16.9681 0.152 16.5923 0.456 16.2893C0.758945 15.9853 1.13472 15.8333 1.58333 15.8333H26.9167C27.3653 15.8333 27.7411 15.9853 28.044 16.2893C28.348 16.5923 28.5 16.9681 28.5 17.4167C28.5 17.8653 28.348 18.2411 28.044 18.544C27.7411 18.848 27.3653 19 26.9167 19H1.58333ZM1.58333 11.0833C1.13472 11.0833 0.758945 10.9313 0.456 10.6273C0.152 10.3244 0 9.94861 0 9.5C0 9.05139 0.152 8.67508 0.456 8.37108C0.758945 8.06814 1.13472 7.91667 1.58333 7.91667H26.9167C27.3653 7.91667 27.7411 8.06814 28.044 8.37108C28.348 8.67508 28.5 9.05139 28.5 9.5C28.5 9.94861 28.348 10.3244 28.044 10.6273C27.7411 10.9313 27.3653 11.0833 26.9167 11.0833H1.58333ZM1.58333 3.16667C1.13472 3.16667 0.758945 3.01519 0.456 2.71225C0.152 2.40825 0 2.03194 0 1.58333C0 1.13472 0.152 0.758417 0.456 0.454417C0.758945 0.151473 1.13472 0 1.58333 0H26.9167C27.3653 0 27.7411 0.151473 28.044 0.454417C28.348 0.758417 28.5 1.13472 28.5 1.58333C28.5 2.03194 28.348 2.40825 28.044 2.71225C27.7411 3.01519 27.3653 3.16667 26.9167 3.16667H1.58333Z" fill="#2617CD"/>
</svg>
