<svg width="18" height="18" viewBox="0 0 18 18" fill="none" xmlns="http://www.w3.org/2000/svg">
<path d="M7.875 2.25H2.25C2.09467 2.25 1.96875 2.37592 1.96875 2.53125V4.21875C1.96875 4.37408 2.09467 4.5 2.25 4.5H7.875C8.03033 4.5 8.15625 4.37408 8.15625 4.21875V2.53125C8.15625 2.37592 8.03033 2.25 7.875 2.25Z" fill="#EF873B"/>
<path d="M5.0625 14.3438C5.7336 14.343 6.377 14.0761 6.85154 13.6015C7.32608 13.127 7.59301 12.4836 7.59375 11.8125V5.0625H2.53125V11.8125C2.53199 12.4836 2.79892 13.127 3.27346 13.6015C3.748 14.0761 4.3914 14.343 5.0625 14.3438Z" fill="#EF873B"/>
<path d="M16.0312 2.25H10.125C9.96967 2.25 9.84375 2.37592 9.84375 2.53125V4.21875C9.84375 4.37408 9.96967 4.5 10.125 4.5H16.0312C16.1866 4.5 16.3125 4.37408 16.3125 4.21875V2.53125C16.3125 2.37592 16.1866 2.25 16.0312 2.25Z" fill="#EF873B"/>
<path d="M12.9375 14.3438C13.6086 14.343 14.252 14.0761 14.7265 13.6015C15.2011 13.127 15.468 12.4836 15.4688 11.8125V5.0625H10.4062V11.8125C10.407 12.4836 10.6739 13.127 11.1485 13.6015C11.623 14.0761 12.2664 14.343 12.9375 14.3438Z" fill="#EF873B"/>
<path d="M17.1563 5.90625H16.0313V6.46875H16.875V15.1875H1.125V6.45188H1.96875V5.88938H0.843752C0.806781 5.88925 0.77015 5.89643 0.735968 5.91052C0.701787 5.92461 0.67073 5.94532 0.644588 5.97146C0.618446 5.9976 0.597734 6.02866 0.583646 6.06284C0.569558 6.09702 0.562372 6.13365 0.562502 6.17063V15.4688C0.562717 15.5433 0.592418 15.6147 0.645116 15.6674C0.697814 15.7201 0.769226 15.7498 0.843752 15.75H17.1563C17.2308 15.7498 17.3022 15.7201 17.3549 15.6674C17.4076 15.6147 17.4373 15.5433 17.4375 15.4688V6.1875C17.4373 6.11297 17.4076 6.04156 17.3549 5.98886C17.3022 5.93617 17.2308 5.90647 17.1563 5.90625Z" fill="#EF873B"/>
<path d="M9.84375 5.90625H8.15625V6.46875H9.84375V5.90625Z" fill="#EF873B"/>
</svg>
